<?xml version="1.0" encoding="utf-8"?>
<!-- Generator: Adobe Illustrator 24.1.1, SVG Export Plug-In . SVG Version: 6.00 Build 0)  -->
<svg version="1.1" id="Layer_1" xmlns="http://www.w3.org/2000/svg" xmlns:xlink="http://www.w3.org/1999/xlink" x="0px" y="0px"
	 viewBox="0 0 306 188" style="enable-background:new 0 0 306 188;" xml:space="preserve">
<style type="text/css">
	.st0{fill:#FFFFFF;}
</style>
<g>
	<path id="XMLID_100_" class="st0" d="M218.76,179.48c-22.94,0-45.88,0.17-68.82-0.05c-21.66-0.21-43.33-0.04-64.99-0.34
		c-24-0.34-48.01-0.17-72.01-0.21c-1.93,0-2.56-0.55-2.5-2.46c0.11-4.18,0.11-8.36,0.04-12.54c-0.05-2.97-0.45-5.92-0.36-8.9
		c0.09-3.35,0.55-6.64,1.29-9.9c0.08-0.37,0.17-0.77,0.1-1.13c-0.67-3.69,0.19-7.31,0.53-10.94c0.24-2.54,0.38-5.02-0.26-7.52
		c-1.13-4.43,0.26-8.8,0.45-13.2c0.22-5.05,0.62-10.1,0.55-15.16c-0.09-6.6,0.2-13.16,1.46-19.65c0.8-4.12,0.83-8.33,0.77-12.48
		c-0.13-8.44,0.75-16.82,1.13-25.22c0.29-6.46-0.57-12.9-0.3-19.37c0.12-2.91,0.03-5.83,0.04-8.74c0.01-2.97,0.02-2.98,2.92-2.97
		c12.67,0.02,25.33,0.41,38,0.67c12.54,0.26,25.08,0.35,37.63,0.55c16.28,0.26,32.55,0.47,48.83,0.86
		c12.41,0.3,24.83,0.4,37.24,0.66c14.06,0.29,28.12,0.48,42.17,0.84c13.42,0.35,26.85,0.48,40.27,0.79
		c10.51,0.25,21.02,0.7,31.53,0.61c1.66-0.01,2.21,0.61,2.2,2.24c-0.03,6.64,0.03,13.28,0.15,19.92c0.15,8.01-0.5,16.06-1.15,24.07
		c-0.27,3.33-0.35,6.71-0.17,10.05c0.23,4.24-0.8,8.3-1.27,12.44c-0.29,2.52-0.64,5.03-0.61,7.56c0.09,8.49-0.28,16.98-0.94,25.43
		c-0.26,3.27-1.02,6.49-0.32,9.76c0.36,1.69,0.59,3.37,0.48,5.09c-0.14,2.08-0.36,4.16-0.55,6.24c-0.03,0.38-0.15,0.75-0.15,1.13
		c0.11,6.91-1.8,13.7-1.43,20.59c0.35,6.57,0.14,13.14,0.24,19.7c0.03,2.37-0.06,2.47-2.46,2.43c-20.2-0.41-40.41-0.39-60.62-0.44
		c-3.04-0.01-6.08,0-9.12,0C218.76,179.72,218.76,179.6,218.76,179.48z M266.19,176.33c0,0.13,0,0.27,0,0.4
		c6.53,0,13.06-0.01,19.58,0.01c1.14,0,1.96-0.11,1.95-1.59c-0.05-4.44,0.24-8.89-0.06-13.3c-0.3-4.38-0.34-8.69,0.32-13.04
		c0.26-1.74,0.85-3.49,0.73-5.23c-0.3-4.21,0.38-8.33,0.79-12.47c0.13-1.27,0.15-2.5-0.07-3.77c-0.52-2.92-1.2-5.87-0.67-8.85
		c1.25-7,1.3-14.1,1.45-21.16c0.09-4.24,0.29-8.45,0.49-12.68c0.24-5.06,1.83-9.92,1.66-15.07c-0.34-10.32,0.87-20.62,1.08-30.94
		c0.12-5.64-0.62-11.26-0.32-16.9c0.06-1.01,0-2.03,0.02-3.04c0.02-1.02-0.45-1.5-1.48-1.54c-1.9-0.07-3.79-0.26-5.69-0.3
		c-17.1-0.36-34.2-0.63-51.3-1.06c-12.72-0.32-25.46-0.54-38.18-0.76c-13.62-0.23-27.23-0.4-40.85-0.73
		c-14.56-0.35-29.13-0.3-43.7-0.72c-17.03-0.49-34.08-0.4-51.11-0.91c-7.41-0.22-14.82-0.06-22.23-0.34
		c-5.82-0.22-11.66,0-17.47-0.39c-1.11-0.07-1.75,0.15-1.76,1.52c-0.02,4.37-0.19,8.74-0.27,13.1c-0.07,4.05,0.5,8.08,0.4,12.14
		c-0.22,10-1.52,19.94-1.28,29.96c0.06,2.71,0.01,5.49-0.54,8.13c-1.2,5.74-1.64,11.56-1.48,17.35c0.18,6.74-0.43,13.4-0.84,20.09
		c-0.25,4.16-1.03,8.29-0.02,12.44c0.43,1.76,0.47,3.56,0.12,5.29c-1.09,5.35-0.44,10.82-1.35,16.2c-0.78,4.6-0.96,9.26-0.42,13.97
		c0.41,3.56,0.16,7.22,0.02,10.83c-0.07,1.87,0.61,2.39,2.4,2.39c8.28,0,16.57,0.15,24.85,0.19c31.68,0.15,63.37,0.27,95.05,0.41
		c25.59,0.11,51.19-0.04,76.78,0.33C230.6,176.54,248.4,176.33,266.19,176.33z"/>
	<path id="XMLID_92_" class="st0" d="M34.61,168.13c-2.15,0-4.31-0.02-6.46,0.01c-1.2,0.01-1.66-0.51-1.68-1.72
		c-0.09-6.18-1-12.4,0.19-18.54c1.1-5.67,0.31-11.5,1.64-17.14c0.45-1.91-0.29-3.75-0.63-5.61c-0.61-3.28,0.01-6.53,0.29-9.81
		c0.7-8.26,0.9-16.55,0.9-24.85c0-4.69,0.71-9.32,1.43-13.95c0.69-4.39,0.81-8.85,0.62-13.25c-0.22-5.1,0.53-10.1,0.69-15.15
		c0.18-5.82,0.75-11.62,0.17-17.44c-0.34-3.48,0.18-6.95,0.05-10.43c-0.04-0.98,0.51-1.36,1.43-1.32c4.62,0.17,9.27,0.07,13.85,0.56
		c5.68,0.61,8.06,4.71,6.75,10.35c-0.55,2.39-1.48,4.41-3.22,6.08c-0.49,0.47-0.58,0.87-0.05,1.45c1.05,1.15,1.5,2.63,1.98,4.07
		c0.61,1.84,0.35,3.35-0.87,5.1c-0.87,1.24-2.55,2.6-1.26,5.08c0.92,1.77,1.48,4.56-0.95,6.4c-0.86,0.65-0.35,1.22,0.38,1.57
		c2.83,1.34,3.55,3.72,3.4,6.61c-0.04,0.85-0.19,1.6-0.61,2.34c-1.01,1.76-1.92,3.57-2.14,5.64c-0.01,0.06,0,0.14-0.04,0.18
		c-2.39,2.75-0.82,4.93,0.75,7.4c1.18,1.84,1.22,4.24,1.36,6.44c0.29,4.4,0.65,8.76-0.87,13.14c-0.67,1.94-0.06,4.37,0.18,6.56
		c0.35,3.29,0.49,6.55-0.17,9.82c-0.6,2.96-0.55,5.95,0.31,8.84c0.76,2.57,0.09,4.59-1.75,6.36c-0.23,0.22-0.44,0.45-0.67,0.67
		c-3.12,2.93-3.38,4-0.9,7.34c0.7,0.94,0.94,1.89-0.3,2.76c-1.11,0.77-1.37,1.91-0.81,3.18c1.35,3.09,1.7,6.46,2.43,9.68
		c1.6,7.05-2.51,11.53-9.9,11.6c-1.84,0.02-3.67,0-5.51,0C34.61,168.14,34.61,168.14,34.61,168.13z M36.29,134.67
		c0-0.05,0-0.1,0-0.16c1.58,0,3.17,0.06,4.75-0.02c1.66-0.08,3.21-0.72,4.75-1.29c2.74-1,5-3.84,3.4-6.88
		c-0.72-1.37-0.68-3.07-0.46-4.67c0.29-2.11,0.42-4.23,0.81-6.35c0.49-2.65-0.19-5.37-0.76-8.06c-0.47-2.2-1.2-4.62,0.09-6.83
		c0.63-1.08,1-2.19,1.1-3.39c0.28-3.48,0.26-6.97-0.38-10.41c-0.7-3.73-2.53-5.8-5.98-6.16c-3.14-0.33-6.3-0.52-9.44-0.91
		c-1.11-0.14-1.86,0.24-1.96,1.47c-0.41,4.85-1.2,9.68-0.88,14.58c0.33,4.87-0.08,9.74-0.33,14.6c-0.21,4.1-1.16,8.15-0.88,12.28
		c0.24,3.58,1.19,7.12,0.4,10.76c-0.26,1.19,0.49,1.51,1.6,1.45C33.5,134.61,34.9,134.67,36.29,134.67z M37.56,165.47
		c2.6,0.21,5.2,0.23,7.54-1.16c1.05-0.62,2.52-1.55,2.25-2.57c-0.46-1.7,0.33-3.2,0.09-4.8c-0.15-1.04-0.47-1.99-1.07-2.8
		c-0.65-0.88-1.08-1.82-1.47-2.84c-1.05-2.71-3.37-4.42-5.85-4.25c-2.6,0.18-5.18,0.16-7.76-0.09c-1.3-0.13-1.82,0.24-2.01,1.7
		c-0.66,5.02-0.57,10.02-0.31,15.05c0.06,1.2,0.37,1.77,1.6,1.76C32.89,165.45,35.23,165.47,37.56,165.47z M41.09,34.94
		c0.64,0,1.52,0,2.41,0c4.77-0.01,6.28-1.09,7.74-5.55c1.23-3.75-0.44-6.94-4.36-7.45c-3.62-0.48-7.32-0.36-10.98-0.49
		c-0.85-0.03-1.29,0.4-1.31,1.26c-0.09,3.54-0.31,7.07,0.06,10.61c0.1,0.97,0.57,1.3,1.46,1.34C37.68,34.73,39.26,34.83,41.09,34.94
		z M33.54,66.35c-0.04,0-0.08,0-0.11,0c0,1.45,0.01,2.91-0.01,4.36c-0.01,0.79,0.14,1.46,1.13,1.31c3.97-0.59,8.09,0.13,11.81-2.38
		c2.87-1.94,3.05-1.59,2.96-5.11c-0.05-1.82-0.85-2.89-2.59-3.18c-3.93-0.65-7.91-0.81-11.89-0.8c-0.99,0-1.32,0.53-1.3,1.44
		C33.55,63.44,33.54,64.89,33.54,66.35z M36.38,143.62c2.47,0.06,4.93,0.08,7.37-0.38c0.54-0.1,1.31-0.09,1.43-0.71
		c0.14-0.73-0.58-1.07-1.15-1.32c-1.44-0.65-2.89-1.2-4.52-1.2c-2.65,0-5.31,0.14-7.95-0.28c-0.85-0.14-1.81-0.1-1.76,1.09
		c0.05,1.1-0.34,2.64,1.46,2.77C32.97,143.7,34.68,143.61,36.38,143.62z M34.62,43.3c-0.08,1.3-0.08,2.55,1.67,2.28
		c2.96-0.46,5.94-0.31,8.9-0.46c1.04-0.05,1.45-0.57,1.46-1.56c0.01-0.95-0.47-1.4-1.37-1.47c-2.88-0.21-5.77-0.39-8.65-0.62
		C35.2,41.35,34.43,41.83,34.62,43.3z"/>
	<path id="XMLID_91_" class="st0" d="M169.16,26.91c-2.87,3.78-4.59,8.05-5.57,12.68c-0.8,3.73-0.07,7.2,1.33,10.66
		c1.29,3.18,1.11,6.42-0.81,9.27c-2.75,4.08-2.68,8.26-1.05,12.64c1.1,2.97,0.8,5.75-0.78,8.55c-2.12,3.77-3.43,7.88-4.61,12.03
		c-0.51,1.78-0.11,3.6,0.27,5.26c0.96,4.27-0.12,8.13-1.62,12c-0.6,1.53-1.22,3.06-1.83,4.59c-0.11,0.29-0.16,0.66-0.54,0.69
		c-0.43,0.04-0.53-0.36-0.55-0.63c-0.37-3.62-2.01-6.93-2.45-10.52c-0.17-1.39,0.01-2.74,0.47-4.11c0.87-2.57,0.87-5.24,0.35-7.88
		c-0.75-3.78-1.56-7.55-2.4-11.32c-0.4-1.79-0.25-3.44,0.35-5.2c0.91-2.68,1.4-5.47,2.48-8.13c0.72-1.77-0.04-3.89-1.02-5.64
		c-2.51-4.48-2.31-8.83,0.02-13.38c2.8-5.47,1.78-10.92-0.95-16.14c-1.08-2.05-2.33-4.02-4.1-6.22c0,1.8-0.09,3.17,0.01,4.52
		c0.47,6.2,0.22,12.38-0.37,18.57c-0.4,4.15-0.42,8.35-0.47,12.52c-0.08,6.2-0.25,12.37-1.3,18.52c-1.2,7-1.01,14.13-0.99,21.22
		c0.02,5.95-0.29,11.89-1.4,17.76c-0.34,1.83-0.09,3.7,0.38,5.46c1.22,4.63,0.14,9.19-0.26,13.77c-0.04,0.44-0.19,0.87-0.19,1.31
		c-0.06,2.71,0.14,5.42-0.44,8.11c-1.31,6.01-0.39,12.09-0.42,18.14c0,0.51-0.01,1.02-0.08,1.52c-0.09,0.68-0.54,0.95-1.2,0.96
		c-0.71,0.01-1.25-0.2-1.37-1c-0.03-0.19-0.05-0.38-0.06-0.57c-0.24-6.68-0.87-13.41,0.52-20c0.9-4.28,0.09-8.6,0.95-12.83
		c0.67-3.28,0.35-6.5-0.21-9.79c-0.77-4.55,0.64-9.06,0.73-13.61c0.11-5.62,0.69-11.22,0.5-16.87c-0.15-4.47,0.09-9.02,1-13.41
		c0.95-4.58,1.19-9.17,1.07-13.78c-0.25-10.28,1.37-20.47,1.15-30.75c-0.09-4.24-0.6-8.47-0.33-12.72c0.05-0.82-0.3-1.9,0.9-2.23
		c1.16-0.32,1.92,0.29,2.51,1.23c2.47,3.97,5.4,7.67,7.25,12.01c2.19,5.15,2.28,10.19-0.43,15.3c-1.96,3.71-2.04,7.63,0.04,11.46
		c1.5,2.78,2.03,5.55,0.68,8.7c-1.11,2.59-1.68,5.42-2.31,8.19c-0.46,1.99,0.57,3.85,0.91,5.76c0.49,2.78,1.11,5.53,1.79,8.87
		c0.66-1.89,1.17-3.22,1.59-4.57c0.89-2.85,2.02-5.6,3.47-8.21c1.72-3.1,0.89-6.16-0.13-9.17c-1.23-3.66-0.92-7.11,1.13-10.35
		c2.26-3.56,2.51-7.18,0.71-11.01c-1.76-3.74-1.43-7.61-0.45-11.48c1.48-5.89,4.69-10.87,8.27-15.65c0.54-0.72,1.25-0.82,2.03-0.67
		c0.93,0.18,0.9,0.96,0.89,1.66c-0.02,11.76,0.48,23.52-0.9,35.26c-0.42,3.63-0.19,7.34-0.14,11.02c0.05,3.43-0.2,6.82-0.88,10.18
		c-1.07,5.31-0.95,10.69-1.11,16.07c-0.22,7.52-0.32,15.05-1.37,22.52c-0.32,2.26-0.44,4.63,0.11,6.81c0.8,3.18,0.64,6.27,0.13,9.41
		c-0.32,1.95-0.45,3.92-0.36,5.87c0.18,3.94-0.75,7.76-1.14,11.63c-0.32,3.2-0.56,6.35,0.09,9.59c0.4,1.99-0.02,4.15-0.11,6.24
		c-0.03,0.71-0.56,0.92-1.21,0.92c-0.67,0-1.09-0.26-1.14-0.97c-0.01-0.13-0.02-0.25-0.03-0.38c-0.4-6.61-0.99-13.24,0.11-19.82
		c1-5.94,0.6-11.97,1.63-17.9c0.2-1.18-0.26-2.5-0.48-3.74c-0.54-3.07-0.69-6.06,0.05-9.19c0.61-2.61,0.52-5.41,0.6-8.12
		c0.16-5.63,0.47-11.26,0.49-16.9c0.02-4.98,0.49-9.94,1.57-14.87c0.73-3.31,0.43-6.82,0.46-10.22c0.09-9.5,1-18.95,1.29-28.44
		C169.99,34.3,169.52,30.66,169.16,26.91z"/>
	<path id="XMLID_85_" class="st0" d="M84.17,42.66c0.61,3.07-1.51,6.41-1.85,10.05c-0.28,2.93-0.36,5.76,0.75,8.59
		c0.72,1.83,0.8,3.87,0.52,5.82c-0.45,3.06-0.98,6.12-1.71,9.12c-0.67,2.75-0.17,5.43,0.17,8.1c0.62,4.84,1.6,9.77,0.39,14.51
		c-1.32,5.16,0.07,10.03,0.4,15.02c0.07,1.01,0.23,1.99-0.31,2.96c-0.77,1.39-0.21,2.83,0.31,4.03c1.86,4.26,0.92,7.99-1.64,11.58
		c-1.92,2.7-2.2,5.73-1.53,8.89c0.15,0.69,0.35,1.38,0.13,2.06c-0.8,2.46-0.37,5.01-0.64,7.51c-0.26,2.47,0.8,4.56,1.72,6.71
		c1.24,2.9,2.49,5.8,3.7,8.72c0.24,0.58,0.85,1.39-0.14,1.74c-0.8,0.29-1.82,0.36-2.27-0.74c-0.82-1.98-1.97-3.82-2.5-5.93
		c-0.73-2.89-1.06-3.1-4.04-3.12c-4.24-0.03-8.49-0.08-12.73-0.08c-2.44,0-2.82,0.49-2.48,2.95c0.03,0.24,0.08,0.53-0.01,0.73
		c-0.85,1.84-1.72,3.66-2.61,5.48c-0.46,0.95-1.32,1.01-2.11,0.69c-1.06-0.42-0.32-1.18-0.1-1.75c0.36-0.94,0.85-1.84,1.25-2.77
		c0.41-0.94,1.22-1.79,0.42-2.96c-0.17-0.24,0.07-0.87,0.27-1.24c2.51-4.41,4.32-9.25,4.52-14.16c0.2-4.93,2.27-10.1-0.55-14.98
		c-0.4-0.7-0.66-1.5-1.16-2.16c-1.44-1.9-2.01-4.1-1.23-6.28c1.28-3.59,1.24-7.42,2.35-11.03c1.64-5.31,1.9-10.66,0.18-16.02
		c-0.3-0.94-0.19-1.89,0.05-2.82c1.01-3.98,1.7-8.04,3.36-11.84c1.22-2.79,1.42-5.63,0.95-8.71c-0.64-4.17-0.88-8.4,0.86-12.52
		c1.15-2.73,0.81-5.72,0.62-8.64c-0.16-2.32-0.42-4.64-0.33-6.95c0.32-8.04,2.63-15.53,6.6-22.51c0.93-1.64,2.66-1.81,3.36-0.21
		c2.43,5.62,5.55,10.97,6.74,17.08C84.15,39.03,84.04,40.48,84.17,42.66z M75.52,22.99c-2.19,3.64-3.37,7.24-4.32,11
		c-1.35,5.35-1.83,10.7-1.08,16.14c0.47,3.4,0.26,6.7-0.97,9.9c-1.05,2.74-0.85,5.58-0.77,8.41c0.11,3.52,1.13,7.05-0.14,10.53
		c-1.09,2.97-2.09,5.96-2.84,9.04c-0.56,2.3-0.5,2.53,1.74,2.8c3.52,0.42,7.04,0.75,10.59,0.85c1.65,0.05,2.27-0.29,2.06-2.08
		c-0.43-3.51-1.05-7.08-0.85-10.58c0.2-3.62,0.72-7.28,1.64-10.84c0.57-2.2,0.49-4.48-0.23-6.57c-1.47-4.26-1.29-8.4-0.04-12.66
		c0.46-1.55,0.95-3.13,1.03-4.81c0.23-4.76-0.47-9.34-2.44-13.7C77.81,28.05,76.73,25.66,75.52,22.99z M71.93,130.47
		c0,0,0,0.01,0,0.01c-2.09,0-4.17,0.01-6.26,0c-0.92,0-1.27,0.32-0.92,1.28c1.03,2.8,1.39,5.67,0.28,8.5
		c-0.7,1.78,0.51,3.49-0.06,5.21c-0.97,2.93-1.19,6.06-2.4,8.92c-0.31,0.75-0.04,1.04,0.74,1.06c4.17,0.1,8.33,0.23,12.5,0.34
		c0.7,0.02,1.29-0.07,1.05-1.06c-0.86-3.49-0.72-6.98,0.05-10.48c0.2-0.9,0.29-1.96,0.02-2.81c-1.08-3.44-0.3-6.48,1.64-9.35
		c0.85-1.26,0.41-1.65-0.95-1.63C75.72,130.5,73.82,130.47,71.93,130.47z M74.09,110.29c0,0.09,0,0.18,0,0.27
		c1.32,0,2.65-0.05,3.97,0.01c1.25,0.06,1.8-0.33,1.39-1.65c-0.5-1.59-0.33-3.26-0.52-4.88c-0.28-2.41,0.84-4.57,0.95-6.9
		c0.06-1.39-0.04-1.88-1.62-1.75c-3.71,0.3-7.44,0.47-11.17,0.52c-1.72,0.03-2.36,0.68-1.9,2.27c1.04,3.61,0.21,7.13-0.4,10.66
		c-0.2,1.16,0.08,1.48,1.17,1.47C68.66,110.27,71.37,110.29,74.09,110.29z M71.7,128.04c0,0,0,0.01,0,0.01
		c2.47,0,4.94-0.02,7.41,0.01c1.01,0.01,1.75-0.25,1.83-1.41c0.15-2.14-0.41-4.13-1.2-6.08c-0.23-0.56-0.73-0.66-1.26-0.65
		c-5,0.01-10,0.02-15,0.03c-0.79,0-1.35,0.3-1.53,1.12c-0.41,1.82-0.52,3.63,0.23,5.4c0.46,1.09,1.21,1.66,2.49,1.61
		C67.02,127.98,69.36,128.04,71.7,128.04z"/>
	<path id="XMLID_80_" class="st0" d="M274.56,40.38c0.26,3.25-0.24,6.11-1.78,8.92c-1.97,3.61-2.27,7.63-0.48,11.37
		c1.73,3.6,1.91,6.97,0.34,10.58c-0.88,2.03-1.23,4.24-1.87,6.36c-0.71,2.34,0.37,4.73,0.56,7.11c0.28,3.4,0.86,6.77,1.55,10.12
		c0.38,1.86,0.31,3.78,0.01,5.68c-0.38,2.41-0.3,4.77,0.63,7.09c0.71,1.77,0.66,3.73,1.02,5.59c0.68,3.54,0.22,7.24,1.66,10.69
		c0.81,1.95,0.38,3.83-1.06,5.47c-1.09,1.23-2.05,2.58-3.09,3.85c-2.44,2.97-2.79,7-0.85,10.28c0.53,0.9,0.66,1.62,0.29,2.77
		c-1.51,4.75-1.91,9.63,1.48,13.74c1.84,2.23,2.5,4.88,3.81,7.27c0.3,0.55,1.14,1.44,0.12,1.91c-0.95,0.44-2.02,0.18-2.54-0.98
		c-0.8-1.79-1.7-3.55-2.35-5.39c-0.41-1.15-0.99-1.55-2.18-1.61c-4.94-0.28-9.88-0.14-14.82-0.22c-1.18-0.02-1.83,0.36-2.27,1.5
		c-0.71,1.83-1.6,3.58-2.46,5.35c-0.3,0.62-0.64,1.17-1.53,1.19c-1.23,0.03-1.63-0.23-1.05-1.49c1.83-3.97,3.55-7.98,5.37-11.95
		c0.89-1.94,1.52-3.85,0.97-6.04c-0.35-1.39-0.08-2.86,0.53-4.08c1.02-2.01,1.34-4.22,2.07-6.3c0.64-1.81,0-3.56-0.68-5.16
		c-0.81-1.91-1.69-3.88-3.15-5.39c-2.18-2.25-2.36-4.83-1.57-7.58c1.11-3.89,2.32-7.76,3.54-11.62c1.23-3.89,2.14-7.76,1.53-11.93
		c-0.43-2.99,0.83-5.87,1.58-8.73c0.86-3.24,1.75-6.49,3.18-9.54c1.09-2.31,0.85-4.6,0.03-6.83c-1.47-4.01-1.57-7.89,0.49-11.75
		c2.02-3.79,2.26-7.69,0.57-11.7c-1.91-4.56-1.17-9.19-0.16-13.79c0.8-3.66,2.08-7.16,3.86-10.47c0.48-0.88,0.92-1.62,2.1-1.57
		c1.14,0.05,1.43,0.87,1.8,1.68c1.01,2.25,2.02,4.5,3.05,6.74C274.16,34.39,274.98,37.35,274.56,40.38z M267.71,26.64
		c-1.68,2.51-2.15,5.28-2.79,7.95c-1.13,4.75-1.96,9.56-0.06,14.34c1.42,3.56,1.8,7.15-0.12,10.6c-2.54,4.57-2.28,9.18-0.69,13.92
		c0.46,1.37,0.77,2.8,0.26,4.28c-1.2,3.46-2.49,6.9-3.48,10.42c-0.91,3.27-2.26,6.54-1.79,10.01c0.35,2.58,0.07,5.05-0.48,7.51
		c-0.45,2.03-1.13,4.02-1.79,5.99c-0.4,1.18-0.09,1.58,1.16,1.61c3.6,0.08,7.2,0.27,10.8,0.39c2.97,0.09,2.95,0.07,2.69-2.79
		c-0.1-1.15-0.36-2.24-0.74-3.32c-0.78-2.26-1.02-4.56-0.57-6.92c0.36-1.89,0.41-3.82,0.01-5.67c-0.62-2.92-0.73-5.92-1.41-8.8
		c-1.39-5.87-0.13-11.4,1.79-16.87c0.82-2.33,0.89-4.65-0.2-6.82c-2.52-5.01-2.24-9.82,0.47-14.67c0.92-1.65,1.34-3.5,1.38-5.46
		C272.28,36.74,270.65,31.65,267.71,26.64z M271.48,130.09c-4.66,0-9.08,0-13.5,0c-0.9,0-1.14,0.46-0.77,1.22
		c0.33,0.68,0.75,1.31,1.1,1.98c1.02,1.95,1.74,3.97,0.98,6.17c-0.62,1.78-0.93,3.66-1.85,5.36c-0.81,1.51-1.15,3.26-0.75,4.98
		c0.43,1.84,0,3.5-0.69,5.16c-0.36,0.88-0.75,1.74-1.11,2.62c-0.26,0.64-0.26,1.06,0.66,1.07c4.05,0.06,8.09,0.13,12.13,0.27
		c1.62,0.06,1.66-0.61,1.09-1.82c-0.67-1.42-1.72-2.82-1.43-4.44c0.4-2.21,1.01-4.38,1.41-6.61c0.17-0.96,0.17-1.65-0.32-2.46
		c-1.96-3.24-1.54-7.79,0.95-10.61C270.1,132.19,270.91,131.47,271.48,130.09z M264.2,128.41c2.4,0,4.81-0.06,7.2,0.02
		c1.68,0.05,2.22-0.79,2.28-2.3c0.07-1.96-0.87-3.67-1.25-5.52c-0.23-1.11-0.85-1.55-1.99-1.54c-4.8,0.04-9.61,0.02-14.41,0.02
		c-0.72,0-1.43,0.07-1.72,0.87c-0.77,2.13-1.05,4.31-0.19,6.47c0.53,1.33,1.48,2.08,3.07,2.01
		C259.52,128.33,261.86,128.42,264.2,128.41z"/>
	<path id="XMLID_79_" class="st0" d="M183.61,36.27c0.1,7.22-0.04,14.43-0.94,21.6c-0.74,5.87-0.59,6.02,5.17,6.91
		c3.12,0.48,6.26,0.87,9.39,1.32c0.5,0.07,1,0.16,1.48,0.31c0.43,0.14,0.85,0.4,0.75,0.94c-0.09,0.48-0.56,0.45-0.92,0.48
		c-1.2,0.11-2.4,0.22-3.6,0.27c-3.54,0.16-7.08,0.31-10.62,0.42c-1.13,0.03-1.84,0.35-1.74,1.64c0.33,3.91-0.7,7.66-1.36,11.46
		c-0.12,0.68-0.09,1.39-0.17,2.08c-0.14,1.3,0.44,1.77,1.73,1.86c4.29,0.3,8.57,0.76,12.87,1.05c1.59,0.11,2.2,0.7,2.15,2.35
		c-0.1,3.57-0.03,3.65-3.59,3.45c-4.1-0.23-8.2-0.57-12.29-0.98c-0.97-0.1-1.3,0.12-1.3,1.02c0.02,2.34,0.06,4.69,0.06,7.03
		c0,1.05,0.63,1.28,1.49,1.24c4.36-0.19,8.72-0.38,13.08-0.57c0.8-0.04,1.77-0.47,2.23,0.46c0.46,0.94,0.25,2.03-0.21,2.94
		c-0.46,0.93-1.39,0.62-2.21,0.57c-4.35-0.24-8.71-0.45-13.07-0.69c-1.35-0.08-1.81,0.58-1.75,1.83c0.18,3.62,0.07,7.27-0.59,10.79
		c-0.61,3.26-0.68,6.42-0.11,9.59c0.38,2.13,0.95,4.19,0.31,6.36c-0.3,1.03,0.52,0.97,1.14,0.97c3.42-0.03,6.84-0.08,10.26-0.13
		c1.14-0.02,2.28-0.11,3.42-0.07c0.79,0.03,2-0.37,1.95,1.09c-0.04,1.32-1.15,1.12-2,1.15c-4.3,0.15-8.6,0.27-12.9,0.4
		c-2.21,0.07-2.4,0.42-2.59,3.18c-0.14,2.1,1.36,1.84,2.51,1.91c3.98,0.24,7.96,0.38,11.94,0.52c2.39,0.09,2.72,0.4,2.65,2.82
		c-0.01,0.5-0.17,1-0.21,1.5c-0.17,2.01-1.18,2.46-3.17,2.32c-4.35-0.3-8.72-0.22-13.08-0.32c-0.84-0.02-1.34,0.23-1.35,1.15
		c-0.01,1.02,0.63,1.03,1.41,1.03c4.37-0.05,8.74-0.1,13.11-0.07c0.88,0.01,2.33-0.68,2.29,1.25c-0.06,3.18-0.14,3.34-2.48,3.3
		c-4.3-0.08-8.61-0.22-12.91-0.3c-1.05-0.02-1.57-0.22-1.89,1.6c-0.55,3.11,0.53,6.01,0.09,8.99c-0.22,1.44,0.55,1.83,1.9,1.82
		c5.19-0.04,10.39,0,15.59,0.04c0.65,0,1.45-0.23,1.87,0.57c0.52,0.99-0.1,2.1-1.28,2.11c-4.62,0.01-9.25-0.03-13.87-0.07
		c-1.7-0.01-3.41-0.1-5.11-0.07c-1.14,0.03-1.66-0.4-1.56-1.55c0.35-3.92-0.82-7.79-0.42-11.72c0.35-3.45,0.32-6.91,1.09-10.34
		c0.55-2.45,0.03-5.04,0.36-7.57c0.2-1.5,0.18-3.03,0.47-4.52c0.5-2.59,0.37-5.12-0.26-7.71c-0.96-3.89,0.15-7.78,0.34-11.67
		c0.31-6.18,0.83-12.34,0.82-18.55c-0.01-6.19,0.24-12.38,1.63-18.48c0.65-2.83,0.37-5.81,0.42-8.71c0.17-9.81,0.7-19.6,1.26-29.4
		c0.25-4.38-0.58-8.71-0.45-13.08c0.12-4.25-0.19-3.87,3.77-3.8c5.51,0.09,11.01,0.23,16.52,0.37c0.71,0.02,1.6-0.22,1.63,1.02
		c0.03,1.27-0.75,1.45-1.73,1.43c-4.87-0.11-9.75-0.25-14.62-0.33c-2.76-0.05-2.77,0-2.78,2.69
		C183.61,29.94,183.61,33.1,183.61,36.27z"/>
	<path id="XMLID_76_" class="st0" d="M208.89,61.94c0.39-7.58,0.79-15.16,1.18-22.75c0.25-4.82-0.56-9.61-0.32-14.43
		c0.14-2.79,0.05-2.88,2.91-2.75c4.65,0.22,9.36-0.09,13.86,1.65c5.52,2.14,9.54,7.88,9.65,13.8c0.08,4.65,0.02,9.23-1.92,13.6
		c-1.32,2.98-1.14,6.09-0.03,9.08c1.06,2.84,1.06,5.74,0.69,8.63c-0.36,2.81-0.58,5.67-1.73,8.33c-0.24,0.56-0.28,1.24-0.25,1.86
		c0.48,9.31,0.45,18.62-0.2,27.91c-0.33,4.68-1.5,9.25-3.23,13.63c-1.16,2.94-1.46,5.5,1.31,7.83c1.57,1.31,1.7,3.32,1.34,5.28
		c-0.59,3.18-0.39,6.43-0.7,9.58c-0.54,5.61-0.38,11.38-2.39,16.81c-1.65,4.47-5.12,6.75-9.38,8.12c-4.58,1.47-9.31,0.53-13.97,0.72
		c-1.05,0.04-1.47-0.58-1.49-1.55c-0.14-6.74-0.95-13.53,0.47-20.19c0.83-3.9,0.21-7.83,0.92-11.69c0.77-4.21,0.59-8.38-0.26-12.58
		c-0.63-3.1,0.54-6.14,0.7-9.23c0.38-7.33,0.69-14.66,0.77-22c0.05-5.19,0.81-10.32,1.57-15.46c0.7-4.67,0.53-9.47,0.74-14.21
		C209.04,61.95,208.96,61.94,208.89,61.94z M233.44,40.75c0-0.95,0.02-1.9,0-2.85c-0.12-6.18-3.75-10.85-9.67-12.58
		c-2.99-0.87-6.05-0.32-9.07-0.58c-1.69-0.15-2.24,0.57-2.2,2.19c0.1,3.67,0.12,7.35,0.13,11.02c0.04,10.7-1.42,21.35-1.22,32.06
		c0.04,2.32,0.11,4.65-0.41,6.99c-1.25,5.58-1.77,11.28-1.7,16.97c0.08,6.78-0.08,13.54-0.76,20.28c-0.4,4.02-1.26,8-0.13,12.04
		c0.34,1.22,0.58,2.49,0.39,3.76c-0.86,5.61-0.72,11.31-1.49,16.93c-0.81,5.84-0.99,11.69-0.44,17.57c0.1,1.09,0.47,1.52,1.58,1.65
		c2.34,0.29,4.71,0.29,7.01,0.11c4.76-0.38,8.86-2,10.93-6.88c0.99-2.33,1.34-4.72,1.45-7.2c0.14-2.96,1.07-5.88,1.09-8.79
		c0.03-3.03-0.22-6.04,0.42-9.05c0.56-2.64,0.16-4.94-2.25-6.73c-2.38-1.77-2.58-3.1-1.29-5.75c2.34-4.83,3.91-9.93,4.28-15.26
		c0.58-8.34,0.35-16.72,0.19-25.08c-0.03-1.57-0.58-3.13,0.03-4.69c0.93-2.38,1.18-4.92,1.79-7.37c0.81-3.27,0.41-6.4-0.78-9.48
		c-1.06-2.73-1.37-5.44-0.26-8.31C232.41,48.22,234.18,44.75,233.44,40.75z"/>
	<path id="XMLID_73_" class="st0" d="M98.46,168.18c-1.9,0-3.8-0.03-5.7,0.01c-1.07,0.02-1.48-0.49-1.48-1.5
		c0.05-6.32-0.71-12.67,0.35-18.94c1.01-6,0.56-12.11,1.67-18.1c0.33-1.81-0.49-3.62-0.73-5.43c-0.33-2.46-0.34-4.84,0.24-7.33
		c0.55-2.37,0.56-4.9,0.61-7.36c0.13-6.01,0.48-12.02,0.42-18.04c-0.05-4.75,0.63-9.44,1.4-14.13c0.77-4.68,0.89-9.44,0.84-14.19
		c-0.09-7.67,0.65-15.3,1.07-22.94c0.27-4.83-0.53-9.61-0.31-14.42c0.06-1.39,0.01-2.79,0.04-4.18c0.01-0.73,0.12-1.53,1.06-1.5
		c4.92,0.15,9.93-0.64,14.71,1.01c6.06,2.09,9.61,6.48,10.49,12.79c0.73,5.22,0.28,10.46-0.42,15.67c-0.5,3.71-0.74,7.42-0.43,11.17
		c0.43,5.19,0.03,10.38-0.61,15.53c-0.93,7.46-2.02,14.87-1.62,22.46c0.24,4.64-0.29,9.33-1.3,13.94c-0.73,3.33-1.52,6.63-2.47,9.89
		c-0.55,1.89-0.09,3.55,1.2,4.92c1.32,1.4,1.69,3.01,1.69,4.86c0,3.99-0.05,8.05-0.6,11.92c-0.74,5.23-0.85,10.6-3.12,15.7
		c-1.1,2.47-2.42,4.23-4.42,5.63c-2.59,1.82-5.54,2.73-8.76,2.63c-1.27-0.04-2.53-0.01-3.8-0.01
		C98.46,168.23,98.46,168.21,98.46,168.18z M120.88,40.1c0-0.7,0.02-1.39,0-2.09c-0.26-6.27-2.11-11.64-8.45-14.27
		c-3.79-1.57-7.83-1.22-11.81-1.17c-1.05,0.01-1.18,0.93-1.2,1.65c-0.07,2.02-0.16,4.06,0.04,6.07c0.54,5.63,0.29,11.25-0.03,16.88
		c-0.3,5.31-0.76,10.62-0.75,15.92c0.01,4.05-0.27,8.08-0.49,12.11c-0.21,3.64-1.27,7.24-1.45,10.89
		c-0.37,7.32-0.36,14.65-0.57,21.98c-0.08,2.84-0.05,5.74-0.62,8.51c-0.61,2.99-0.68,5.91-0.14,8.83c0.38,2.02,0.83,4.07,0.38,6.03
		c-1.19,5.16-0.47,10.44-1.33,15.63c-0.93,5.66-1.22,11.42-0.47,17.17c0.15,1.12,0.54,1.57,1.64,1.56c1.84-0.02,3.68-0.02,5.51,0.03
		c3.06,0.08,5.89-0.65,8.51-2.24c0.83-0.5,2.03-1.18,2.01-1.88c-0.06-1.94,1.46-3,2.02-4.55c1.57-4.33,1.95-8.91,2.32-13.39
		c0.25-3.05,0.21-6.17,0.53-9.25c0.28-2.75-0.05-5.3-2.44-7.19c-1.72-1.35-1.81-3.26-1-5.01c1.39-3,2.02-6.17,2.76-9.36
		c1.18-5.1,1.57-10.24,1.38-15.43c-0.07-1.83-0.35-3.67-0.17-5.5c0.48-4.78,0.83-9.59,1.64-14.32c0.77-4.46,0.84-8.92,0.96-13.4
		c0.12-4.04-0.74-8.06-0.05-12.13C120.28,48.18,121.15,44.2,120.88,40.1z"/>
	<path id="XMLID_72_" class="st0" d="M238.05,164.43c-0.51-5.36-0.63-10.71,0.34-16.03c1.11-6.05,0.4-12.26,1.66-18.3
		c0.33-1.57-0.35-3.01-0.63-4.48c-0.9-4.65,0.21-9.2,0.55-13.79c0.06-0.88,0.21-1.76,0.24-2.64c0.28-8.22,0.5-16.45,0.82-24.67
		c0.07-1.7,0.36-3.4,0.7-5.07c1.07-5.31,1.05-10.7,1.09-16.07c0.08-8.87,0.98-17.7,1.07-26.56c0.04-4.05-0.46-8.1-0.28-12.16
		c0.03-0.67-0.14-1.44,0.72-1.79c1.08-0.43,2.05,0.19,1.99,1.46c-0.41,8.53,0.49,17.04-0.42,25.61c-0.82,7.65-0.55,15.41-0.67,23.12
		c-0.04,2.82-0.97,5.48-1.18,8.26c-0.4,5.11-0.81,10.2-0.81,15.34c-0.01,7.46-0.25,14.93-1.51,22.32c-0.31,1.8-0.18,3.59,0.24,5.28
		c1.25,4.95,0.12,9.82-0.26,14.71c-0.11,1.46-0.36,2.92-0.02,4.35c0.39,1.6-0.45,2.98-0.66,4.46c-0.89,6.13-0.47,12.25-0.31,18.38
		c0.01,0.57-0.01,1.14-0.05,1.71c-0.06,0.8-0.58,1.05-1.3,1.05c-0.74,0.01-1.26-0.29-1.3-1.07
		C238.02,166.72,238.05,165.57,238.05,164.43z"/>
	<path id="XMLID_69_" class="st0" d="M148.14,151.66c1.33-1.93,0.25-4.29,0.94-6.49c0.43-1.37-0.37-2.84-0.82-4.22
		c-1-3.06-0.36-5.71,1.87-8.02c1.06-1.09,2.1-2.19,3.09-3.34c0.78-0.91,1.43-0.93,2.1,0.07c0.99,1.47,2.1,2.87,2.93,4.42
		c0.91,1.69,1.1,3.42,0.52,5.44c-1.08,3.78-2.56,7.49-2.58,11.56c-0.02,2.86-2.07,4.94-3.63,7.16c-0.23,0.32-0.62,0.6-0.94,0.19
		C150.07,156.46,148.52,154.46,148.14,151.66z M156.17,136.91c-0.05-1.06-0.42-2.24-1.1-3.35c-0.63-1.03-1.24-1.3-2.21-0.31
		c-1.92,1.97-2.86,4.28-1.94,6.9c1.27,3.61,0.98,7.19,0.39,10.82c-0.18,1.12-0.54,2.74,0.67,2.95c1.05,0.18,1.27-1.57,1.32-2.56
		c0.12-2.54,0.76-4.95,1.27-7.42C155.05,141.65,156.17,139.52,156.17,136.91z"/>
</g>
</svg>
