<?xml version="1.0" encoding="utf-8"?>
<!-- Generator: Adobe Illustrator 24.1.1, SVG Export Plug-In . SVG Version: 6.00 Build 0)  -->
<svg version="1.1" id="Layer_1" xmlns="http://www.w3.org/2000/svg" xmlns:xlink="http://www.w3.org/1999/xlink" x="0px" y="0px"
	 viewBox="0 0 306 188" style="enable-background:new 0 0 306 188;" xml:space="preserve">
<style type="text/css">
	.st0{fill:#333333;}
</style>
<g>
	<path id="XMLID_100_" class="st0" d="M218.8,179.5c-22.9,0-45.9,0.2-68.8-0.1c-21.7-0.2-43.3,0-65-0.3c-24-0.3-48-0.2-72-0.2
		c-1.9,0-2.6-0.6-2.5-2.5c0.1-4.2,0.1-8.4,0-12.5c-0.1-3-0.4-5.9-0.4-8.9c0.1-3.4,0.6-6.6,1.3-9.9c0.1-0.4,0.2-0.8,0.1-1.1
		c-0.7-3.7,0.2-7.3,0.5-10.9c0.2-2.5,0.4-5-0.3-7.5c-1.1-4.4,0.3-8.8,0.4-13.2c0.2-5.1,0.6-10.1,0.6-15.2C12.7,90.5,13,84,14.2,77.5
		C15,73.4,15.1,69.2,15,65c-0.1-8.4,0.8-16.8,1.1-25.2c0.3-6.5-0.6-12.9-0.3-19.4c0.1-2.9,0-5.8,0-8.7c0-3,0-3,2.9-3
		c12.7,0,25.3,0.4,38,0.7c12.5,0.3,25.1,0.4,37.6,0.6c16.3,0.3,32.6,0.5,48.8,0.9c12.4,0.3,24.8,0.4,37.2,0.7
		c14.1,0.3,28.1,0.5,42.2,0.8c13.4,0.4,26.9,0.5,40.3,0.8c10.5,0.3,21,0.7,31.5,0.6c1.7,0,2.2,0.6,2.2,2.2c0,6.6,0,13.3,0.1,19.9
		c0.1,8-0.5,16.1-1.1,24.1c-0.3,3.3-0.4,6.7-0.2,10.1c0.2,4.2-0.8,8.3-1.3,12.4c-0.3,2.5-0.6,5-0.6,7.6c0.1,8.5-0.3,17-0.9,25.4
		c-0.3,3.3-1,6.5-0.3,9.8c0.4,1.7,0.6,3.4,0.5,5.1c-0.1,2.1-0.4,4.2-0.5,6.2c0,0.4-0.1,0.8-0.1,1.1c0.1,6.9-1.8,13.7-1.4,20.6
		c0.4,6.6,0.1,13.1,0.2,19.7c0,2.4-0.1,2.5-2.5,2.4c-20.2-0.4-40.4-0.4-60.6-0.4c-3,0-6.1,0-9.1,0
		C218.8,179.7,218.8,179.6,218.8,179.5z M266.2,176.3c0,0.1,0,0.3,0,0.4c6.5,0,13.1,0,19.6,0c1.1,0,2-0.1,2-1.6
		c0-4.4,0.2-8.9-0.1-13.3c-0.3-4.4-0.3-8.7,0.3-13c0.3-1.7,0.9-3.5,0.7-5.2c-0.3-4.2,0.4-8.3,0.8-12.5c0.1-1.3,0.1-2.5-0.1-3.8
		c-0.5-2.9-1.2-5.9-0.7-8.8c1.3-7,1.3-14.1,1.5-21.2c0.1-4.2,0.3-8.4,0.5-12.7c0.2-5.1,1.8-9.9,1.7-15.1
		c-0.3-10.3,0.9-20.6,1.1-30.9c0.1-5.6-0.6-11.3-0.3-16.9c0.1-1,0-2,0-3c0-1-0.5-1.5-1.5-1.5c-1.9-0.1-3.8-0.3-5.7-0.3
		c-17.1-0.4-34.2-0.6-51.3-1.1c-12.7-0.3-25.5-0.5-38.2-0.8c-13.6-0.2-27.2-0.4-40.9-0.7c-14.6-0.4-29.1-0.3-43.7-0.7
		c-17-0.5-34.1-0.4-51.1-0.9c-7.4-0.2-14.8-0.1-22.2-0.3c-5.8-0.2-11.7,0-17.5-0.4c-1.1-0.1-1.8,0.1-1.8,1.5c0,4.4-0.2,8.7-0.3,13.1
		c-0.1,4.1,0.5,8.1,0.4,12.1c-0.2,10-1.5,19.9-1.3,30c0.1,2.7,0,5.5-0.5,8.1c-1.2,5.7-1.6,11.6-1.5,17.3c0.2,6.7-0.4,13.4-0.8,20.1
		c-0.3,4.2-1,8.3,0,12.4c0.4,1.8,0.5,3.6,0.1,5.3c-1.1,5.4-0.4,10.8-1.4,16.2c-0.8,4.6-1,9.3-0.4,14c0.4,3.6,0.2,7.2,0,10.8
		c-0.1,1.9,0.6,2.4,2.4,2.4c8.3,0,16.6,0.1,24.8,0.2c31.7,0.1,63.4,0.3,95,0.4c25.6,0.1,51.2,0,76.8,0.3
		C230.6,176.5,248.4,176.3,266.2,176.3z"/>
	<path id="XMLID_92_" class="st0" d="M34.6,168.1c-2.2,0-4.3,0-6.5,0c-1.2,0-1.7-0.5-1.7-1.7c-0.1-6.2-1-12.4,0.2-18.5
		c1.1-5.7,0.3-11.5,1.6-17.1c0.5-1.9-0.3-3.8-0.6-5.6c-0.6-3.3,0-6.5,0.3-9.8c0.7-8.3,0.9-16.6,0.9-24.8c0-4.7,0.7-9.3,1.4-13.9
		c0.7-4.4,0.8-8.8,0.6-13.3c-0.2-5.1,0.5-10.1,0.7-15.2c0.2-5.8,0.8-11.6,0.2-17.4c-0.3-3.5,0.2-6.9,0-10.4c0-1,0.5-1.4,1.4-1.3
		c4.6,0.2,9.3,0.1,13.9,0.6c5.7,0.6,8.1,4.7,6.8,10.4c-0.5,2.4-1.5,4.4-3.2,6.1c-0.5,0.5-0.6,0.9,0,1.5c1,1.2,1.5,2.6,2,4.1
		c0.6,1.8,0.3,3.3-0.9,5.1c-0.9,1.2-2.5,2.6-1.3,5.1c0.9,1.8,1.5,4.6-1,6.4c-0.9,0.7-0.3,1.2,0.4,1.6c2.8,1.3,3.5,3.7,3.4,6.6
		c0,0.8-0.2,1.6-0.6,2.3c-1,1.8-1.9,3.6-2.1,5.6c0,0.1,0,0.1,0,0.2c-2.4,2.8-0.8,4.9,0.8,7.4c1.2,1.8,1.2,4.2,1.4,6.4
		c0.3,4.4,0.7,8.8-0.9,13.1c-0.7,1.9-0.1,4.4,0.2,6.6c0.3,3.3,0.5,6.6-0.2,9.8c-0.6,3-0.5,5.9,0.3,8.8c0.8,2.6,0.1,4.6-1.8,6.4
		c-0.2,0.2-0.4,0.4-0.7,0.7c-3.1,2.9-3.4,4-0.9,7.3c0.7,0.9,0.9,1.9-0.3,2.8c-1.1,0.8-1.4,1.9-0.8,3.2c1.3,3.1,1.7,6.5,2.4,9.7
		c1.6,7.1-2.5,11.5-9.9,11.6C38.3,168.2,36.5,168.1,34.6,168.1C34.6,168.1,34.6,168.1,34.6,168.1z M36.3,134.7c0-0.1,0-0.1,0-0.2
		c1.6,0,3.2,0.1,4.8,0c1.7-0.1,3.2-0.7,4.8-1.3c2.7-1,5-3.8,3.4-6.9c-0.7-1.4-0.7-3.1-0.5-4.7c0.3-2.1,0.4-4.2,0.8-6.3
		c0.5-2.7-0.2-5.4-0.8-8.1c-0.5-2.2-1.2-4.6,0.1-6.8c0.6-1.1,1-2.2,1.1-3.4c0.3-3.5,0.3-7-0.4-10.4c-0.7-3.7-2.5-5.8-6-6.2
		c-3.1-0.3-6.3-0.5-9.4-0.9c-1.1-0.1-1.9,0.2-2,1.5c-0.4,4.8-1.2,9.7-0.9,14.6c0.3,4.9-0.1,9.7-0.3,14.6c-0.2,4.1-1.2,8.2-0.9,12.3
		c0.2,3.6,1.2,7.1,0.4,10.8c-0.3,1.2,0.5,1.5,1.6,1.4C33.5,134.6,34.9,134.7,36.3,134.7z M37.6,165.5c2.6,0.2,5.2,0.2,7.5-1.2
		c1-0.6,2.5-1.6,2.3-2.6c-0.5-1.7,0.3-3.2,0.1-4.8c-0.2-1-0.5-2-1.1-2.8c-0.7-0.9-1.1-1.8-1.5-2.8c-1-2.7-3.4-4.4-5.8-4.3
		c-2.6,0.2-5.2,0.2-7.8-0.1c-1.3-0.1-1.8,0.2-2,1.7c-0.7,5-0.6,10-0.3,15.1c0.1,1.2,0.4,1.8,1.6,1.8
		C32.9,165.4,35.2,165.5,37.6,165.5z M41.1,34.9c0.6,0,1.5,0,2.4,0c4.8,0,6.3-1.1,7.7-5.5c1.2-3.8-0.4-6.9-4.4-7.5
		c-3.6-0.5-7.3-0.4-11-0.5c-0.8,0-1.3,0.4-1.3,1.3c-0.1,3.5-0.3,7.1,0.1,10.6c0.1,1,0.6,1.3,1.5,1.3C37.7,34.7,39.3,34.8,41.1,34.9z
		 M33.5,66.3c0,0-0.1,0-0.1,0c0,1.4,0,2.9,0,4.4c0,0.8,0.1,1.5,1.1,1.3c4-0.6,8.1,0.1,11.8-2.4c2.9-1.9,3-1.6,3-5.1
		c0-1.8-0.8-2.9-2.6-3.2c-3.9-0.7-7.9-0.8-11.9-0.8c-1,0-1.3,0.5-1.3,1.4C33.5,63.4,33.5,64.9,33.5,66.3z M36.4,143.6
		c2.5,0.1,4.9,0.1,7.4-0.4c0.5-0.1,1.3-0.1,1.4-0.7c0.1-0.7-0.6-1.1-1.2-1.3c-1.4-0.6-2.9-1.2-4.5-1.2c-2.7,0-5.3,0.1-8-0.3
		c-0.9-0.1-1.8-0.1-1.8,1.1c0,1.1-0.3,2.6,1.5,2.8C33,143.7,34.7,143.6,36.4,143.6z M34.6,43.3c-0.1,1.3-0.1,2.5,1.7,2.3
		c3-0.5,5.9-0.3,8.9-0.5c1,0,1.5-0.6,1.5-1.6c0-1-0.5-1.4-1.4-1.5c-2.9-0.2-5.8-0.4-8.6-0.6C35.2,41.3,34.4,41.8,34.6,43.3z"/>
	<path id="XMLID_91_" class="st0" d="M169.2,26.9c-2.9,3.8-4.6,8-5.6,12.7c-0.8,3.7-0.1,7.2,1.3,10.7c1.3,3.2,1.1,6.4-0.8,9.3
		c-2.8,4.1-2.7,8.3-1.1,12.6c1.1,3,0.8,5.8-0.8,8.6c-2.1,3.8-3.4,7.9-4.6,12c-0.5,1.8-0.1,3.6,0.3,5.3c1,4.3-0.1,8.1-1.6,12
		c-0.6,1.5-1.2,3.1-1.8,4.6c-0.1,0.3-0.2,0.7-0.5,0.7c-0.4,0-0.5-0.4-0.6-0.6c-0.4-3.6-2-6.9-2.4-10.5c-0.2-1.4,0-2.7,0.5-4.1
		c0.9-2.6,0.9-5.2,0.4-7.9c-0.8-3.8-1.6-7.6-2.4-11.3c-0.4-1.8-0.3-3.4,0.4-5.2c0.9-2.7,1.4-5.5,2.5-8.1c0.7-1.8,0-3.9-1-5.6
		c-2.5-4.5-2.3-8.8,0-13.4c2.8-5.5,1.8-10.9-0.9-16.1c-1.1-2-2.3-4-4.1-6.2c0,1.8-0.1,3.2,0,4.5c0.5,6.2,0.2,12.4-0.4,18.6
		c-0.4,4.2-0.4,8.3-0.5,12.5c-0.1,6.2-0.3,12.4-1.3,18.5c-1.2,7-1,14.1-1,21.2c0,5.9-0.3,11.9-1.4,17.8c-0.3,1.8-0.1,3.7,0.4,5.5
		c1.2,4.6,0.1,9.2-0.3,13.8c0,0.4-0.2,0.9-0.2,1.3c-0.1,2.7,0.1,5.4-0.4,8.1c-1.3,6-0.4,12.1-0.4,18.1c0,0.5,0,1-0.1,1.5
		c-0.1,0.7-0.5,0.9-1.2,1c-0.7,0-1.3-0.2-1.4-1c0-0.2-0.1-0.4-0.1-0.6c-0.2-6.7-0.9-13.4,0.5-20c0.9-4.3,0.1-8.6,0.9-12.8
		c0.7-3.3,0.4-6.5-0.2-9.8c-0.8-4.6,0.6-9.1,0.7-13.6c0.1-5.6,0.7-11.2,0.5-16.9c-0.1-4.5,0.1-9,1-13.4c0.9-4.6,1.2-9.2,1.1-13.8
		c-0.3-10.3,1.4-20.5,1.1-30.8c-0.1-4.2-0.6-8.5-0.3-12.7c0.1-0.8-0.3-1.9,0.9-2.2c1.2-0.3,1.9,0.3,2.5,1.2c2.5,4,5.4,7.7,7.3,12
		c2.2,5.2,2.3,10.2-0.4,15.3c-2,3.7-2,7.6,0,11.5c1.5,2.8,2,5.5,0.7,8.7c-1.1,2.6-1.7,5.4-2.3,8.2c-0.5,2,0.6,3.8,0.9,5.8
		c0.5,2.8,1.1,5.5,1.8,8.9c0.7-1.9,1.2-3.2,1.6-4.6c0.9-2.8,2-5.6,3.5-8.2c1.7-3.1,0.9-6.2-0.1-9.2c-1.2-3.7-0.9-7.1,1.1-10.3
		c2.3-3.6,2.5-7.2,0.7-11c-1.8-3.7-1.4-7.6-0.4-11.5c1.5-5.9,4.7-10.9,8.3-15.6c0.5-0.7,1.3-0.8,2-0.7c0.9,0.2,0.9,1,0.9,1.7
		c0,11.8,0.5,23.5-0.9,35.3c-0.4,3.6-0.2,7.3-0.1,11c0.1,3.4-0.2,6.8-0.9,10.2c-1.1,5.3-0.9,10.7-1.1,16.1
		c-0.2,7.5-0.3,15.1-1.4,22.5c-0.3,2.3-0.4,4.6,0.1,6.8c0.8,3.2,0.6,6.3,0.1,9.4c-0.3,1.9-0.4,3.9-0.4,5.9c0.2,3.9-0.8,7.8-1.1,11.6
		c-0.3,3.2-0.6,6.4,0.1,9.6c0.4,2,0,4.1-0.1,6.2c0,0.7-0.6,0.9-1.2,0.9c-0.7,0-1.1-0.3-1.1-1c0-0.1,0-0.3,0-0.4
		c-0.4-6.6-1-13.2,0.1-19.8c1-5.9,0.6-12,1.6-17.9c0.2-1.2-0.3-2.5-0.5-3.7c-0.5-3.1-0.7-6.1,0.1-9.2c0.6-2.6,0.5-5.4,0.6-8.1
		c0.2-5.6,0.5-11.3,0.5-16.9c0-5,0.5-9.9,1.6-14.9c0.7-3.3,0.4-6.8,0.5-10.2c0.1-9.5,1-19,1.3-28.4C170,34.3,169.5,30.7,169.2,26.9z
		"/>
	<path id="XMLID_85_" class="st0" d="M84.2,42.7c0.6,3.1-1.5,6.4-1.8,10c-0.3,2.9-0.4,5.8,0.8,8.6c0.7,1.8,0.8,3.9,0.5,5.8
		c-0.4,3.1-1,6.1-1.7,9.1c-0.7,2.8-0.2,5.4,0.2,8.1c0.6,4.8,1.6,9.8,0.4,14.5c-1.3,5.2,0.1,10,0.4,15c0.1,1,0.2,2-0.3,3
		c-0.8,1.4-0.2,2.8,0.3,4c1.9,4.3,0.9,8-1.6,11.6c-1.9,2.7-2.2,5.7-1.5,8.9c0.2,0.7,0.3,1.4,0.1,2.1c-0.8,2.5-0.4,5-0.6,7.5
		c-0.3,2.5,0.8,4.6,1.7,6.7c1.2,2.9,2.5,5.8,3.7,8.7c0.2,0.6,0.8,1.4-0.1,1.7c-0.8,0.3-1.8,0.4-2.3-0.7c-0.8-2-2-3.8-2.5-5.9
		c-0.7-2.9-1.1-3.1-4-3.1c-4.2,0-8.5-0.1-12.7-0.1c-2.4,0-2.8,0.5-2.5,2.9c0,0.2,0.1,0.5,0,0.7c-0.8,1.8-1.7,3.7-2.6,5.5
		c-0.5,0.9-1.3,1-2.1,0.7c-1.1-0.4-0.3-1.2-0.1-1.8c0.4-0.9,0.8-1.8,1.3-2.8c0.4-0.9,1.2-1.8,0.4-3c-0.2-0.2,0.1-0.9,0.3-1.2
		c2.5-4.4,4.3-9.3,4.5-14.2c0.2-4.9,2.3-10.1-0.5-15c-0.4-0.7-0.7-1.5-1.2-2.2c-1.4-1.9-2-4.1-1.2-6.3c1.3-3.6,1.2-7.4,2.3-11
		c1.6-5.3,1.9-10.7,0.2-16c-0.3-0.9-0.2-1.9,0-2.8c1-4,1.7-8,3.4-11.8c1.2-2.8,1.4-5.6,0.9-8.7c-0.6-4.2-0.9-8.4,0.9-12.5
		c1.2-2.7,0.8-5.7,0.6-8.6c-0.2-2.3-0.4-4.6-0.3-7c0.3-8,2.6-15.5,6.6-22.5c0.9-1.6,2.7-1.8,3.4-0.2c2.4,5.6,5.6,11,6.7,17.1
		C84.2,39,84,40.5,84.2,42.7z M75.5,23c-2.2,3.6-3.4,7.2-4.3,11c-1.3,5.3-1.8,10.7-1.1,16.1c0.5,3.4,0.3,6.7-1,9.9
		c-1.1,2.7-0.8,5.6-0.8,8.4c0.1,3.5,1.1,7.1-0.1,10.5c-1.1,3-2.1,6-2.8,9c-0.6,2.3-0.5,2.5,1.7,2.8c3.5,0.4,7,0.8,10.6,0.8
		c1.7,0.1,2.3-0.3,2.1-2.1c-0.4-3.5-1.1-7.1-0.8-10.6c0.2-3.6,0.7-7.3,1.6-10.8c0.6-2.2,0.5-4.5-0.2-6.6c-1.5-4.3-1.3-8.4,0-12.7
		c0.5-1.5,0.9-3.1,1-4.8c0.2-4.8-0.5-9.3-2.4-13.7C77.8,28,76.7,25.7,75.5,23z M71.9,130.5L71.9,130.5c-2.1,0-4.2,0-6.3,0
		c-0.9,0-1.3,0.3-0.9,1.3c1,2.8,1.4,5.7,0.3,8.5c-0.7,1.8,0.5,3.5-0.1,5.2c-1,2.9-1.2,6.1-2.4,8.9c-0.3,0.8,0,1,0.7,1.1
		c4.2,0.1,8.3,0.2,12.5,0.3c0.7,0,1.3-0.1,1.1-1.1c-0.9-3.5-0.7-7,0.1-10.5c0.2-0.9,0.3-2,0-2.8c-1.1-3.4-0.3-6.5,1.6-9.4
		c0.8-1.3,0.4-1.6-0.9-1.6C75.7,130.5,73.8,130.5,71.9,130.5z M74.1,110.3c0,0.1,0,0.2,0,0.3c1.3,0,2.7-0.1,4,0
		c1.3,0.1,1.8-0.3,1.4-1.7c-0.5-1.6-0.3-3.3-0.5-4.9c-0.3-2.4,0.8-4.6,0.9-6.9c0.1-1.4,0-1.9-1.6-1.8c-3.7,0.3-7.4,0.5-11.2,0.5
		c-1.7,0-2.4,0.7-1.9,2.3c1,3.6,0.2,7.1-0.4,10.7c-0.2,1.2,0.1,1.5,1.2,1.5C68.7,110.3,71.4,110.3,74.1,110.3z M71.7,128L71.7,128
		c2.5,0,4.9,0,7.4,0c1,0,1.8-0.3,1.8-1.4c0.2-2.1-0.4-4.1-1.2-6.1c-0.2-0.6-0.7-0.7-1.3-0.7c-5,0-10,0-15,0c-0.8,0-1.3,0.3-1.5,1.1
		c-0.4,1.8-0.5,3.6,0.2,5.4c0.5,1.1,1.2,1.7,2.5,1.6C67,128,69.4,128,71.7,128z"/>
	<path id="XMLID_80_" class="st0" d="M274.6,40.4c0.3,3.3-0.2,6.1-1.8,8.9c-2,3.6-2.3,7.6-0.5,11.4c1.7,3.6,1.9,7,0.3,10.6
		c-0.9,2-1.2,4.2-1.9,6.4c-0.7,2.3,0.4,4.7,0.6,7.1c0.3,3.4,0.9,6.8,1.5,10.1c0.4,1.9,0.3,3.8,0,5.7c-0.4,2.4-0.3,4.8,0.6,7.1
		c0.7,1.8,0.7,3.7,1,5.6c0.7,3.5,0.2,7.2,1.7,10.7c0.8,1.9,0.4,3.8-1.1,5.5c-1.1,1.2-2,2.6-3.1,3.9c-2.4,3-2.8,7-0.9,10.3
		c0.5,0.9,0.7,1.6,0.3,2.8c-1.5,4.8-1.9,9.6,1.5,13.7c1.8,2.2,2.5,4.9,3.8,7.3c0.3,0.6,1.1,1.4,0.1,1.9c-1,0.4-2,0.2-2.5-1
		c-0.8-1.8-1.7-3.6-2.4-5.4c-0.4-1.1-1-1.6-2.2-1.6c-4.9-0.3-9.9-0.1-14.8-0.2c-1.2,0-1.8,0.4-2.3,1.5c-0.7,1.8-1.6,3.6-2.5,5.4
		c-0.3,0.6-0.6,1.2-1.5,1.2c-1.2,0-1.6-0.2-1.1-1.5c1.8-4,3.6-8,5.4-11.9c0.9-1.9,1.5-3.9,1-6c-0.4-1.4-0.1-2.9,0.5-4.1
		c1-2,1.3-4.2,2.1-6.3c0.6-1.8,0-3.6-0.7-5.2c-0.8-1.9-1.7-3.9-3.1-5.4c-2.2-2.3-2.4-4.8-1.6-7.6c1.1-3.9,2.3-7.8,3.5-11.6
		c1.2-3.9,2.1-7.8,1.5-11.9c-0.4-3,0.8-5.9,1.6-8.7c0.9-3.2,1.8-6.5,3.2-9.5c1.1-2.3,0.9-4.6,0-6.8c-1.5-4-1.6-7.9,0.5-11.8
		c2-3.8,2.3-7.7,0.6-11.7c-1.9-4.6-1.2-9.2-0.2-13.8c0.8-3.7,2.1-7.2,3.9-10.5c0.5-0.9,0.9-1.6,2.1-1.6c1.1,0,1.4,0.9,1.8,1.7
		c1,2.3,2,4.5,3,6.7C274.2,34.4,275,37.3,274.6,40.4z M267.7,26.6c-1.7,2.5-2.1,5.3-2.8,8c-1.1,4.8-2,9.6-0.1,14.3
		c1.4,3.6,1.8,7.2-0.1,10.6c-2.5,4.6-2.3,9.2-0.7,13.9c0.5,1.4,0.8,2.8,0.3,4.3c-1.2,3.5-2.5,6.9-3.5,10.4c-0.9,3.3-2.3,6.5-1.8,10
		c0.4,2.6,0.1,5.1-0.5,7.5c-0.5,2-1.1,4-1.8,6c-0.4,1.2-0.1,1.6,1.2,1.6c3.6,0.1,7.2,0.3,10.8,0.4c3,0.1,3,0.1,2.7-2.8
		c-0.1-1.2-0.4-2.2-0.7-3.3c-0.8-2.3-1-4.6-0.6-6.9c0.4-1.9,0.4-3.8,0-5.7c-0.6-2.9-0.7-5.9-1.4-8.8c-1.4-5.9-0.1-11.4,1.8-16.9
		c0.8-2.3,0.9-4.7-0.2-6.8c-2.5-5-2.2-9.8,0.5-14.7c0.9-1.7,1.3-3.5,1.4-5.5C272.3,36.7,270.6,31.6,267.7,26.6z M271.5,130.1
		c-4.7,0-9.1,0-13.5,0c-0.9,0-1.1,0.5-0.8,1.2c0.3,0.7,0.8,1.3,1.1,2c1,1.9,1.7,4,1,6.2c-0.6,1.8-0.9,3.7-1.9,5.4
		c-0.8,1.5-1.1,3.3-0.8,5c0.4,1.8,0,3.5-0.7,5.2c-0.4,0.9-0.8,1.7-1.1,2.6c-0.3,0.6-0.3,1.1,0.7,1.1c4.1,0.1,8.1,0.1,12.1,0.3
		c1.6,0.1,1.7-0.6,1.1-1.8c-0.7-1.4-1.7-2.8-1.4-4.4c0.4-2.2,1-4.4,1.4-6.6c0.2-1,0.2-1.6-0.3-2.5c-2-3.2-1.5-7.8,1-10.6
		C270.1,132.2,270.9,131.5,271.5,130.1z M264.2,128.4c2.4,0,4.8-0.1,7.2,0c1.7,0.1,2.2-0.8,2.3-2.3c0.1-2-0.9-3.7-1.3-5.5
		c-0.2-1.1-0.9-1.6-2-1.5c-4.8,0-9.6,0-14.4,0c-0.7,0-1.4,0.1-1.7,0.9c-0.8,2.1-1.1,4.3-0.2,6.5c0.5,1.3,1.5,2.1,3.1,2
		C259.5,128.3,261.9,128.4,264.2,128.4z"/>
	<path id="XMLID_79_" class="st0" d="M183.6,36.3c0.1,7.2,0,14.4-0.9,21.6c-0.7,5.9-0.6,6,5.2,6.9c3.1,0.5,6.3,0.9,9.4,1.3
		c0.5,0.1,1,0.2,1.5,0.3c0.4,0.1,0.9,0.4,0.8,0.9c-0.1,0.5-0.6,0.4-0.9,0.5c-1.2,0.1-2.4,0.2-3.6,0.3c-3.5,0.2-7.1,0.3-10.6,0.4
		c-1.1,0-1.8,0.3-1.7,1.6c0.3,3.9-0.7,7.7-1.4,11.5c-0.1,0.7-0.1,1.4-0.2,2.1c-0.1,1.3,0.4,1.8,1.7,1.9c4.3,0.3,8.6,0.8,12.9,1.1
		c1.6,0.1,2.2,0.7,2.1,2.3c-0.1,3.6,0,3.7-3.6,3.4c-4.1-0.2-8.2-0.6-12.3-1c-1-0.1-1.3,0.1-1.3,1c0,2.3,0.1,4.7,0.1,7
		c0,1.1,0.6,1.3,1.5,1.2c4.4-0.2,8.7-0.4,13.1-0.6c0.8,0,1.8-0.5,2.2,0.5c0.5,0.9,0.3,2-0.2,2.9c-0.5,0.9-1.4,0.6-2.2,0.6
		c-4.4-0.2-8.7-0.4-13.1-0.7c-1.4-0.1-1.8,0.6-1.8,1.8c0.2,3.6,0.1,7.3-0.6,10.8c-0.6,3.3-0.7,6.4-0.1,9.6c0.4,2.1,0.9,4.2,0.3,6.4
		c-0.3,1,0.5,1,1.1,1c3.4,0,6.8-0.1,10.3-0.1c1.1,0,2.3-0.1,3.4-0.1c0.8,0,2-0.4,1.9,1.1c0,1.3-1.1,1.1-2,1.1
		c-4.3,0.1-8.6,0.3-12.9,0.4c-2.2,0.1-2.4,0.4-2.6,3.2c-0.1,2.1,1.4,1.8,2.5,1.9c4,0.2,8,0.4,11.9,0.5c2.4,0.1,2.7,0.4,2.6,2.8
		c0,0.5-0.2,1-0.2,1.5c-0.2,2-1.2,2.5-3.2,2.3c-4.4-0.3-8.7-0.2-13.1-0.3c-0.8,0-1.3,0.2-1.4,1.1c0,1,0.6,1,1.4,1
		c4.4-0.1,8.7-0.1,13.1-0.1c0.9,0,2.3-0.7,2.3,1.3c-0.1,3.2-0.1,3.3-2.5,3.3c-4.3-0.1-8.6-0.2-12.9-0.3c-1.1,0-1.6-0.2-1.9,1.6
		c-0.6,3.1,0.5,6,0.1,9c-0.2,1.4,0.6,1.8,1.9,1.8c5.2,0,10.4,0,15.6,0c0.6,0,1.4-0.2,1.9,0.6c0.5,1-0.1,2.1-1.3,2.1
		c-4.6,0-9.3,0-13.9-0.1c-1.7,0-3.4-0.1-5.1-0.1c-1.1,0-1.7-0.4-1.6-1.6c0.4-3.9-0.8-7.8-0.4-11.7c0.4-3.4,0.3-6.9,1.1-10.3
		c0.6-2.4,0-5,0.4-7.6c0.2-1.5,0.2-3,0.5-4.5c0.5-2.6,0.4-5.1-0.3-7.7c-1-3.9,0.1-7.8,0.3-11.7c0.3-6.2,0.8-12.3,0.8-18.5
		c0-6.2,0.2-12.4,1.6-18.5c0.6-2.8,0.4-5.8,0.4-8.7c0.2-9.8,0.7-19.6,1.3-29.4c0.3-4.4-0.6-8.7-0.4-13.1c0.1-4.3-0.2-3.9,3.8-3.8
		c5.5,0.1,11,0.2,16.5,0.4c0.7,0,1.6-0.2,1.6,1c0,1.3-0.8,1.5-1.7,1.4c-4.9-0.1-9.8-0.3-14.6-0.3c-2.8,0-2.8,0-2.8,2.7
		C183.6,29.9,183.6,33.1,183.6,36.3z"/>
	<path id="XMLID_76_" class="st0" d="M208.9,61.9c0.4-7.6,0.8-15.2,1.2-22.8c0.3-4.8-0.6-9.6-0.3-14.4c0.1-2.8,0.1-2.9,2.9-2.8
		c4.6,0.2,9.4-0.1,13.9,1.6c5.5,2.1,9.5,7.9,9.6,13.8c0.1,4.7,0,9.2-1.9,13.6c-1.3,3-1.1,6.1,0,9.1c1.1,2.8,1.1,5.7,0.7,8.6
		c-0.4,2.8-0.6,5.7-1.7,8.3c-0.2,0.6-0.3,1.2-0.3,1.9c0.5,9.3,0.4,18.6-0.2,27.9c-0.3,4.7-1.5,9.3-3.2,13.6
		c-1.2,2.9-1.5,5.5,1.3,7.8c1.6,1.3,1.7,3.3,1.3,5.3c-0.6,3.2-0.4,6.4-0.7,9.6c-0.5,5.6-0.4,11.4-2.4,16.8c-1.6,4.5-5.1,6.8-9.4,8.1
		c-4.6,1.5-9.3,0.5-14,0.7c-1.1,0-1.5-0.6-1.5-1.6c-0.1-6.7-0.9-13.5,0.5-20.2c0.8-3.9,0.2-7.8,0.9-11.7c0.8-4.2,0.6-8.4-0.3-12.6
		c-0.6-3.1,0.5-6.1,0.7-9.2c0.4-7.3,0.7-14.7,0.8-22c0.1-5.2,0.8-10.3,1.6-15.5c0.7-4.7,0.5-9.5,0.7-14.2
		C209,62,209,61.9,208.9,61.9z M233.4,40.8c0-1,0-1.9,0-2.8c-0.1-6.2-3.8-10.9-9.7-12.6c-3-0.9-6.1-0.3-9.1-0.6
		c-1.7-0.1-2.2,0.6-2.2,2.2c0.1,3.7,0.1,7.4,0.1,11c0,10.7-1.4,21.3-1.2,32.1c0,2.3,0.1,4.7-0.4,7c-1.3,5.6-1.8,11.3-1.7,17
		c0.1,6.8-0.1,13.5-0.8,20.3c-0.4,4-1.3,8-0.1,12c0.3,1.2,0.6,2.5,0.4,3.8c-0.9,5.6-0.7,11.3-1.5,16.9c-0.8,5.8-1,11.7-0.4,17.6
		c0.1,1.1,0.5,1.5,1.6,1.6c2.3,0.3,4.7,0.3,7,0.1c4.8-0.4,8.9-2,10.9-6.9c1-2.3,1.3-4.7,1.4-7.2c0.1-3,1.1-5.9,1.1-8.8
		c0-3-0.2-6,0.4-9.1c0.6-2.6,0.2-4.9-2.3-6.7c-2.4-1.8-2.6-3.1-1.3-5.8c2.3-4.8,3.9-9.9,4.3-15.3c0.6-8.3,0.4-16.7,0.2-25.1
		c0-1.6-0.6-3.1,0-4.7c0.9-2.4,1.2-4.9,1.8-7.4c0.8-3.3,0.4-6.4-0.8-9.5c-1.1-2.7-1.4-5.4-0.3-8.3C232.4,48.2,234.2,44.8,233.4,40.8
		z"/>
	<path id="XMLID_73_" class="st0" d="M98.5,168.2c-1.9,0-3.8,0-5.7,0c-1.1,0-1.5-0.5-1.5-1.5c0.1-6.3-0.7-12.7,0.3-18.9
		c1-6,0.6-12.1,1.7-18.1c0.3-1.8-0.5-3.6-0.7-5.4c-0.3-2.5-0.3-4.8,0.2-7.3c0.6-2.4,0.6-4.9,0.6-7.4c0.1-6,0.5-12,0.4-18
		c-0.1-4.8,0.6-9.4,1.4-14.1c0.8-4.7,0.9-9.4,0.8-14.2c-0.1-7.7,0.7-15.3,1.1-22.9c0.3-4.8-0.5-9.6-0.3-14.4c0.1-1.4,0-2.8,0-4.2
		c0-0.7,0.1-1.5,1.1-1.5c4.9,0.1,9.9-0.6,14.7,1c6.1,2.1,9.6,6.5,10.5,12.8c0.7,5.2,0.3,10.5-0.4,15.7c-0.5,3.7-0.7,7.4-0.4,11.2
		c0.4,5.2,0,10.4-0.6,15.5c-0.9,7.5-2,14.9-1.6,22.5c0.2,4.6-0.3,9.3-1.3,13.9c-0.7,3.3-1.5,6.6-2.5,9.9c-0.6,1.9-0.1,3.6,1.2,4.9
		c1.3,1.4,1.7,3,1.7,4.9c0,4-0.1,8.1-0.6,11.9c-0.7,5.2-0.8,10.6-3.1,15.7c-1.1,2.5-2.4,4.2-4.4,5.6c-2.6,1.8-5.5,2.7-8.8,2.6
		C101,168.2,99.7,168.2,98.5,168.2C98.5,168.2,98.5,168.2,98.5,168.2z M120.9,40.1c0-0.7,0-1.4,0-2.1c-0.3-6.3-2.1-11.6-8.4-14.3
		c-3.8-1.6-7.8-1.2-11.8-1.2c-1.1,0-1.2,0.9-1.2,1.6c-0.1,2-0.2,4.1,0,6.1c0.5,5.6,0.3,11.3,0,16.9c-0.3,5.3-0.8,10.6-0.8,15.9
		c0,4.1-0.3,8.1-0.5,12.1c-0.2,3.6-1.3,7.2-1.4,10.9c-0.4,7.3-0.4,14.7-0.6,22c-0.1,2.8-0.1,5.7-0.6,8.5c-0.6,3-0.7,5.9-0.1,8.8
		c0.4,2,0.8,4.1,0.4,6c-1.2,5.2-0.5,10.4-1.3,15.6c-0.9,5.7-1.2,11.4-0.5,17.2c0.2,1.1,0.5,1.6,1.6,1.6c1.8,0,3.7,0,5.5,0
		c3.1,0.1,5.9-0.6,8.5-2.2c0.8-0.5,2-1.2,2-1.9c-0.1-1.9,1.5-3,2-4.6c1.6-4.3,1.9-8.9,2.3-13.4c0.3-3.1,0.2-6.2,0.5-9.3
		c0.3-2.8-0.1-5.3-2.4-7.2c-1.7-1.3-1.8-3.3-1-5c1.4-3,2-6.2,2.8-9.4c1.2-5.1,1.6-10.2,1.4-15.4c-0.1-1.8-0.3-3.7-0.2-5.5
		c0.5-4.8,0.8-9.6,1.6-14.3c0.8-4.5,0.8-8.9,1-13.4c0.1-4-0.7-8.1-0.1-12.1C120.3,48.2,121.2,44.2,120.9,40.1z"/>
	<path id="XMLID_72_" class="st0" d="M238.1,164.4c-0.5-5.4-0.6-10.7,0.3-16c1.1-6.1,0.4-12.3,1.7-18.3c0.3-1.6-0.4-3-0.6-4.5
		c-0.9-4.7,0.2-9.2,0.6-13.8c0.1-0.9,0.2-1.8,0.2-2.6c0.3-8.2,0.5-16.4,0.8-24.7c0.1-1.7,0.4-3.4,0.7-5.1c1.1-5.3,1.1-10.7,1.1-16.1
		c0.1-8.9,1-17.7,1.1-26.6c0-4-0.5-8.1-0.3-12.2c0-0.7-0.1-1.4,0.7-1.8c1.1-0.4,2.1,0.2,2,1.5c-0.4,8.5,0.5,17-0.4,25.6
		c-0.8,7.7-0.6,15.4-0.7,23.1c0,2.8-1,5.5-1.2,8.3c-0.4,5.1-0.8,10.2-0.8,15.3c0,7.5-0.3,14.9-1.5,22.3c-0.3,1.8-0.2,3.6,0.2,5.3
		c1.3,5,0.1,9.8-0.3,14.7c-0.1,1.5-0.4,2.9,0,4.4c0.4,1.6-0.4,3-0.7,4.5c-0.9,6.1-0.5,12.3-0.3,18.4c0,0.6,0,1.1-0.1,1.7
		c-0.1,0.8-0.6,1.1-1.3,1.1c-0.7,0-1.3-0.3-1.3-1.1C238,166.7,238.1,165.6,238.1,164.4z"/>
	<path id="XMLID_69_" class="st0" d="M148.1,151.7c1.3-1.9,0.3-4.3,0.9-6.5c0.4-1.4-0.4-2.8-0.8-4.2c-1-3.1-0.4-5.7,1.9-8
		c1.1-1.1,2.1-2.2,3.1-3.3c0.8-0.9,1.4-0.9,2.1,0.1c1,1.5,2.1,2.9,2.9,4.4c0.9,1.7,1.1,3.4,0.5,5.4c-1.1,3.8-2.6,7.5-2.6,11.6
		c0,2.9-2.1,4.9-3.6,7.2c-0.2,0.3-0.6,0.6-0.9,0.2C150.1,156.5,148.5,154.5,148.1,151.7z M156.2,136.9c-0.1-1.1-0.4-2.2-1.1-3.4
		c-0.6-1-1.2-1.3-2.2-0.3c-1.9,2-2.9,4.3-1.9,6.9c1.3,3.6,1,7.2,0.4,10.8c-0.2,1.1-0.5,2.7,0.7,2.9c1.1,0.2,1.3-1.6,1.3-2.6
		c0.1-2.5,0.8-4.9,1.3-7.4C155.1,141.6,156.2,139.5,156.2,136.9z"/>
</g>
</svg>
