<?xml version="1.0" encoding="utf-8"?>
<!-- Generator: Adobe Illustrator 24.1.1, SVG Export Plug-In . SVG Version: 6.00 Build 0)  -->
<svg version="1.1" id="Layer_1" xmlns="http://www.w3.org/2000/svg" xmlns:xlink="http://www.w3.org/1999/xlink" x="0px" y="0px"
	 viewBox="0 0 35 35" style="enable-background:new 0 0 35 35;" xml:space="preserve">
<style type="text/css">
	.st0{fill:#333333;}
</style>
<path class="st0" d="M29.29,2.83H5.35c-1.46,0-2.64,1.18-2.64,2.64v23.94c0,1.46,1.18,2.64,2.64,2.64h23.94
	c1.46,0,2.64-1.18,2.64-2.64V5.47C31.94,4.01,30.75,2.83,29.29,2.83z M11.75,28.07c0,0.42-0.34,0.77-0.77,0.77H7.71
	c-0.42,0-0.77-0.34-0.77-0.77V14.34c0-0.42,0.34-0.77,0.77-0.77h3.28c0.42,0,0.77,0.34,0.77,0.77V28.07z M9.34,12.28
	c-1.72,0-3.11-1.39-3.11-3.11s1.39-3.11,3.11-3.11s3.11,1.39,3.11,3.11S11.06,12.28,9.34,12.28z M28.87,28.13
	c0,0.39-0.32,0.71-0.71,0.71h-3.51c-0.39,0-0.71-0.32-0.71-0.71v-6.44c0-0.96,0.28-4.21-2.51-4.21c-2.17,0-2.61,2.22-2.69,3.22v7.43
	c0,0.39-0.32,0.71-0.71,0.71h-3.4c-0.39,0-0.71-0.32-0.71-0.71V14.28c0-0.39,0.32-0.71,0.71-0.71h3.4c0.39,0,0.71,0.32,0.71,0.71
	v1.2c0.8-1.21,2-2.14,4.54-2.14c5.63,0,5.6,5.26,5.6,8.15L28.87,28.13L28.87,28.13z"/>
</svg>
