<?xml version="1.0" encoding="utf-8"?>
<!-- Generator: Adobe Illustrator 24.1.1, SVG Export Plug-In . SVG Version: 6.00 Build 0)  -->
<svg version="1.1" id="Layer_1" xmlns="http://www.w3.org/2000/svg" xmlns:xlink="http://www.w3.org/1999/xlink" x="0px" y="0px"
	 viewBox="0 0 35 35" style="enable-background:new 0 0 35 35;" xml:space="preserve">
<style type="text/css">
	.st0{fill:#333333;}
</style>
<g>
	<g>
		<path class="st0" d="M23.43,2.86H11.64c-4.79,0-8.69,3.9-8.69,8.69v11.79c0,4.79,3.9,8.69,8.69,8.69h11.79
			c4.79,0,8.69-3.9,8.69-8.69V11.55C32.13,6.76,28.23,2.86,23.43,2.86z M29.19,23.34c0,3.18-2.58,5.76-5.76,5.76H11.64
			c-3.18,0-5.76-2.58-5.76-5.76V11.55c0-3.18,2.58-5.76,5.76-5.76h11.79c3.18,0,5.76,2.58,5.76,5.76L29.19,23.34L29.19,23.34z"/>
		<path class="st0" d="M17.54,9.9c-4.16,0-7.54,3.38-7.54,7.54s3.38,7.54,7.54,7.54s7.54-3.38,7.54-7.54S21.7,9.9,17.54,9.9z
			 M17.54,22.06c-2.55,0-4.61-2.06-4.61-4.61s2.06-4.61,4.61-4.61c2.55,0,4.61,2.06,4.61,4.61C22.15,19.99,20.09,22.06,17.54,22.06z
			"/>
		<circle class="st0" cx="25.1" cy="9.96" r="1.81"/>
	</g>
</g>
</svg>
